<?xml version="1.0" standalone="no"?>
<!DOCTYPE svg PUBLIC "-//W3C//DTD SVG 20010904//EN"
 "http://www.w3.org/TR/2001/REC-SVG-20010904/DTD/svg10.dtd">
<svg version="1.0" xmlns="http://www.w3.org/2000/svg"
 width="1200.000000pt" height="1200.000000pt" viewBox="0 0 1200.000000 1200.000000"
 preserveAspectRatio="xMidYMid meet">

<g transform="translate(0.000000,1200.000000) scale(0.100000,-0.100000)"
 stroke="none">
<path d="M5750 11119 c-271 -12 -390 -26 -695 -80 -490 -87 -1017 -272 -1469
-516 -471 -254 -853 -541 -1232 -925 -455 -462 -774 -927 -1041 -1518 -98
-216 -250 -653 -278 -799 -2 -9 -8 -36 -15 -61 -7 -25 -14 -56 -17 -70 -2 -14
-8 -41 -13 -60 -5 -19 -12 -51 -15 -70 -3 -19 -12 -64 -20 -100 -7 -36 -18
-103 -24 -150 -6 -47 -18 -137 -26 -200 -8 -63 -15 -120 -15 -127 0 -11 246
-13 1303 -13 l1304 0 12 54 c6 29 14 66 17 82 16 91 76 275 137 419 133 316
293 552 547 805 250 251 506 424 820 555 123 52 333 118 417 131 21 3 41 8 44
10 3 2 71 13 150 25 202 31 523 31 723 0 76 -11 141 -23 145 -25 3 -3 26 -7
49 -11 23 -3 60 -12 82 -20 22 -8 40 -12 40 -10 0 2 51 -14 113 -34 385 -131
688 -316 976 -596 336 -327 558 -704 685 -1165 8 -30 17 -68 20 -84 3 -16 11
-53 17 -82 l12 -54 1304 0 c1003 0 1303 3 1303 12 0 21 -30 249 -46 353 -20
129 -68 369 -94 465 -10 41 -22 86 -26 100 -82 321 -249 737 -427 1064 -254
470 -535 843 -919 1222 -319 316 -594 530 -965 752 -308 185 -567 308 -903
429 -124 44 -400 129 -452 138 -15 3 -38 9 -51 14 -13 5 -41 12 -63 15 -21 4
-55 11 -74 16 -19 5 -51 12 -70 15 -19 3 -64 12 -100 20 -64 13 -101 19 -345
50 -113 14 -516 36 -615 33 -25 0 -119 -4 -210 -9z"/>
<path d="M5765 7665 c-188 -27 -316 -66 -491 -149 -341 -163 -606 -423 -774
-761 -66 -133 -124 -287 -136 -365 -3 -19 -8 -38 -10 -42 -3 -4 -11 -56 -19
-115 -79 -590 148 -1166 605 -1539 197 -160 466 -290 705 -339 772 -158 1537
217 1870 919 116 242 165 462 165 731 0 106 -21 323 -34 343 -2 4 -7 23 -10
42 -12 77 -69 232 -136 365 -165 334 -420 586 -763 755 -102 50 -270 112 -340
125 -12 3 -42 9 -67 15 -141 31 -401 38 -565 15z"/>
<path d="M894 5523 c4 -27 11 -91 16 -143 5 -52 16 -129 24 -170 13 -70 30
-165 42 -235 3 -16 9 -46 14 -65 5 -19 12 -51 15 -70 3 -19 10 -49 16 -66 5
-17 11 -40 13 -50 21 -104 128 -435 199 -614 168 -427 428 -883 710 -1245 274
-351 643 -715 987 -971 353 -263 733 -479 1130 -641 163 -67 442 -161 575
-196 11 -2 54 -14 95 -25 164 -45 431 -94 695 -127 290 -37 802 -39 1123 -4
88 9 391 56 467 73 11 2 56 11 100 20 44 9 94 21 111 27 17 5 40 11 51 13 36
7 306 87 383 113 515 176 1046 462 1475 797 329 256 664 591 922 921 278 357
534 805 705 1234 73 182 181 514 203 621 2 8 8 35 15 60 7 25 14 56 17 70 2
14 8 41 13 60 11 41 14 57 41 210 11 63 26 169 34 235 8 66 17 141 21 168 l7
47 -1305 0 -1305 0 -12 -54 c-6 -29 -14 -66 -17 -82 -14 -83 -80 -284 -137
-419 -133 -316 -293 -552 -547 -805 -298 -299 -593 -482 -997 -620 -62 -21
-113 -37 -113 -35 0 2 -18 -2 -39 -10 -22 -7 -56 -16 -78 -20 -21 -3 -54 -10
-73 -15 -166 -45 -599 -58 -820 -26 -302 45 -495 101 -762 225 -422 196 -826
561 -1078 976 -50 82 -137 253 -174 343 -42 100 -118 339 -130 406 -3 16 -11
53 -17 82 l-12 54 -1305 0 -1305 0 7 -47z"/>
</g>
</svg>
